<svg xmlns="http://www.w3.org/2000/svg" width="375" viewBox="0 0 375 150" height="150" version="1.0"><g><g><g><path d="M 12.359375 -56.09375 L 12.0625 -56.09375 C 11.320312 -56.832031 10.429688 -57.273438 9.390625 -57.421875 C 8.160156 -57.523438 7.050781 -57.179688 6.0625 -56.390625 C 5.082031 -55.597656 4.515625 -54.609375 4.359375 -53.421875 C 3.921875 -49.972656 3.703125 -46.25 3.703125 -42.25 L 3.703125 -6.8125 C 3.703125 -5.570312 4.15625 -4.492188 5.0625 -3.578125 C 5.976562 -2.671875 7.050781 -2.21875 8.28125 -2.21875 C 8.53125 -2.21875 8.898438 -2.269531 9.390625 -2.375 C 10.328125 -0.644531 11.96875 0.585938 14.3125 1.328125 C 16.65625 2.066406 19.953125 2.4375 24.203125 2.4375 C 25.429688 2.4375 26.5 1.976562 27.40625 1.0625 C 28.320312 0.15625 28.78125 -0.910156 28.78125 -2.140625 C 28.78125 -3.378906 28.320312 -4.441406 27.40625 -5.328125 C 26.5 -6.210938 25.429688 -6.65625 24.203125 -6.65625 C 19.753906 -6.65625 17.410156 -6.90625 17.171875 -7.40625 C 17.171875 -10.363281 17.179688 -13.332031 17.203125 -16.3125 C 17.222656 -19.300781 17.234375 -21.335938 17.234375 -22.421875 C 17.234375 -25.484375 17.171875 -29.035156 17.046875 -33.078125 C 16.929688 -37.117188 16.875 -40.128906 16.875 -42.109375 L 16.875 -51.5 C 16.875 -52.738281 16.425781 -53.8125 15.53125 -54.71875 C 14.644531 -55.632812 13.585938 -56.09375 12.359375 -56.09375 Z M 12.359375 -56.09375" transform="translate(19.09 100.5)"/></g></g></g><g><g><g><path d="M 5.921875 -25.15625 C 4.441406 -26 3.703125 -27.304688 3.703125 -29.078125 C 3.703125 -30.410156 4.226562 -31.65625 5.28125 -32.8125 C 6.34375 -33.976562 7.710938 -34.757812 9.390625 -35.15625 C 10.085938 -35.9375 10.851562 -36.425781 11.6875 -36.625 C 12.082031 -36.726562 12.585938 -36.863281 13.203125 -37.03125 C 13.828125 -37.207031 14.234375 -37.316406 14.421875 -37.359375 C 14.617188 -37.410156 14.914062 -37.484375 15.3125 -37.578125 C 15.707031 -37.679688 15.988281 -37.734375 16.15625 -37.734375 C 16.332031 -37.734375 16.617188 -37.757812 17.015625 -37.8125 C 17.410156 -37.863281 17.789062 -37.890625 18.15625 -37.890625 C 18.53125 -37.890625 19.015625 -37.890625 19.609375 -37.890625 C 23.648438 -37.890625 26.484375 -36.078125 28.109375 -32.453125 C 29.742188 -28.828125 30.632812 -23.707031 30.78125 -17.09375 L 30.78125 -4.65625 C 30.78125 -3.425781 30.335938 -2.363281 29.453125 -1.46875 C 28.566406 -0.582031 27.503906 -0.140625 26.265625 -0.140625 C 24.585938 -0.140625 23.304688 -0.859375 22.421875 -2.296875 C 19.898438 -0.765625 17.382812 0 14.875 0 C 11.96875 0 9.585938 -0.640625 7.734375 -1.921875 C 5.878906 -3.203125 4.953125 -5.078125 4.953125 -7.546875 C 4.953125 -11.691406 6.367188 -15.6875 9.203125 -19.53125 C 12.046875 -23.382812 15.21875 -25.410156 18.71875 -25.609375 C 18.425781 -26.148438 18.15625 -26.566406 17.90625 -26.859375 C 15.144531 -26.859375 13.144531 -26.710938 11.90625 -26.421875 C 10.976562 -25.179688 9.75 -24.5625 8.21875 -24.5625 C 7.320312 -24.5625 6.554688 -24.757812 5.921875 -25.15625 Z M 19.234375 -16.5 L 18.875 -16.359375 C 18.476562 -16.054688 18.03125 -15.660156 17.53125 -15.171875 C 17.1875 -14.773438 16.523438 -13.9375 15.546875 -12.65625 C 15.046875 -11.8125 14.695312 -11.171875 14.5 -10.734375 C 14.007812 -9.492188 13.765625 -8.554688 13.765625 -7.921875 C 13.710938 -7.816406 13.6875 -7.691406 13.6875 -7.546875 C 13.789062 -7.492188 13.988281 -7.46875 14.28125 -7.46875 C 14.820312 -7.46875 15.34375 -7.546875 15.84375 -7.703125 C 16.476562 -7.941406 16.921875 -8.1875 17.171875 -8.4375 L 19.171875 -9.46875 L 20.34375 -10.21875 L 20.203125 -16.5 Z M 19.234375 -16.5" transform="translate(51.572 100.5)"/></g></g></g><g><g><g><path d="M 8.359375 -43.359375 C 9.046875 -43.359375 9.710938 -43.53125 10.359375 -43.875 C 11.742188 -44.46875 12.4375 -44.617188 12.4375 -44.328125 C 12.382812 -43.679688 12.359375 -42.691406 12.359375 -41.359375 C 12.359375 -38.203125 12.503906 -35.296875 12.796875 -32.640625 C 13.691406 -23.609375 14.210938 -14.109375 14.359375 -4.140625 C 14.359375 -2.960938 14.75 -1.941406 15.53125 -1.078125 C 16.320312 -0.210938 17.285156 0.289062 18.421875 0.4375 C 18.765625 1.226562 19.332031 1.894531 20.125 2.4375 C 20.914062 2.976562 21.753906 3.25 22.640625 3.25 C 23.878906 3.25 24.941406 2.789062 25.828125 1.875 C 26.710938 0.96875 27.15625 -0.0976562 27.15625 -1.328125 C 27.15625 -1.671875 27.054688 -5.484375 26.859375 -12.765625 C 26.660156 -20.046875 26.5625 -26.84375 26.5625 -33.15625 C 26.5625 -37.59375 26.8125 -41.535156 27.3125 -44.984375 L 30.484375 -44.703125 C 30.484375 -44.648438 30.851562 -44.820312 31.59375 -45.21875 C 32.332031 -45.613281 33.082031 -46.179688 33.84375 -46.921875 C 34.613281 -47.660156 35 -48.398438 35 -49.140625 C 35 -51.253906 34.144531 -52.609375 32.4375 -53.203125 C 30.738281 -53.796875 27.914062 -54.09375 23.96875 -54.09375 L 19.828125 -54.09375 C 17.515625 -54.09375 15.492188 -54.019531 13.765625 -53.875 C 12.035156 -53.726562 10.359375 -53.441406 8.734375 -53.015625 C 7.109375 -52.597656 5.863281 -51.96875 5 -51.125 C 4.132812 -50.289062 3.703125 -49.234375 3.703125 -47.953125 C 3.703125 -46.617188 4.171875 -45.519531 5.109375 -44.65625 C 6.046875 -43.789062 7.128906 -43.359375 8.359375 -43.359375 Z M 8.359375 -43.359375" transform="translate(86.053 100.5)"/></g></g></g><g><g><g><path d="M 18.125 -17.3125 C 18.175781 -16.28125 18.300781 -15.367188 18.5 -14.578125 C 18.695312 -13.546875 19.039062 -12.65625 19.53125 -11.90625 C 19.925781 -11.320312 20.789062 -10.707031 22.125 -10.0625 C 23.40625 -9.320312 24.488281 -8.90625 25.375 -8.8125 C 26.664062 -8.707031 27.382812 -8.65625 27.53125 -8.65625 C 27.675781 -8.800781 27.945312 -8.972656 28.34375 -9.171875 L 28.78125 -9.546875 C 29.476562 -10.035156 30.296875 -10.28125 31.234375 -10.28125 C 32.910156 -10.28125 34.21875 -9.613281 35.15625 -8.28125 C 35.644531 -7.59375 35.890625 -6.78125 35.890625 -5.84375 C 35.890625 -4.21875 35.222656 -2.9375 33.890625 -2 L 33.375 -1.625 L 32.265625 -0.890625 C 31.179688 -0.203125 29.898438 0.21875 28.421875 0.375 C 28.117188 0.414062 27.648438 0.4375 27.015625 0.4375 C 26.566406 0.4375 25.703125 0.390625 24.421875 0.296875 C 24.273438 0.242188 24.050781 0.21875 23.75 0.21875 C 23.0625 0.613281 22.296875 0.8125 21.453125 0.8125 L 20.203125 0.8125 C 19.554688 0.8125 18.546875 0.765625 17.171875 0.671875 C 15.890625 0.617188 14.382812 0.25 12.65625 -0.4375 C 10.832031 -1.082031 9.128906 -2.171875 7.546875 -3.703125 C 5.921875 -5.234375 4.835938 -6.910156 4.296875 -8.734375 C 3.898438 -10.160156 3.703125 -11.515625 3.703125 -12.796875 L 3.78125 -16.71875 C 3.78125 -18.5 3.753906 -19.609375 3.703125 -20.046875 C 3.597656 -21.234375 3.894531 -23.285156 4.59375 -26.203125 C 5.28125 -29.054688 5.945312 -31.175781 6.59375 -32.5625 C 7.175781 -33.789062 7.71875 -34.800781 8.21875 -35.59375 C 8.65625 -36.332031 9.171875 -37.023438 9.765625 -37.671875 C 10.648438 -38.703125 11.660156 -39.441406 12.796875 -39.890625 C 13.535156 -40.234375 14.472656 -40.40625 15.609375 -40.40625 C 15.910156 -40.601562 16.132812 -40.726562 16.28125 -40.78125 C 17.269531 -41.21875 18.054688 -41.460938 18.640625 -41.515625 L 21.453125 -41.8125 C 21.609375 -41.863281 21.90625 -41.863281 22.34375 -41.8125 C 22.789062 -41.707031 23.039062 -41.679688 23.09375 -41.734375 L 23.15625 -41.734375 L 23.75 -41.59375 C 24.09375 -41.4375 24.289062 -41.382812 24.34375 -41.4375 C 24.394531 -41.4375 24.59375 -41.363281 24.9375 -41.21875 L 25.53125 -40.921875 L 26.046875 -40.625 C 26.296875 -40.425781 26.46875 -40.328125 26.5625 -40.328125 C 28.4375 -39.335938 29.941406 -37.984375 31.078125 -36.265625 C 32.160156 -34.679688 32.898438 -32.976562 33.296875 -31.15625 C 33.597656 -29.769531 33.75 -28.265625 33.75 -26.640625 C 33.75 -24.566406 33.671875 -23.234375 33.515625 -22.640625 C 33.472656 -21.847656 33.226562 -21.035156 32.78125 -20.203125 C 32.238281 -19.066406 31.472656 -18.300781 30.484375 -17.90625 C 29.503906 -17.457031 28.566406 -17.234375 27.671875 -17.234375 L 21.75 -17.234375 L 18.421875 -17.3125 Z M 18.796875 -26.421875 L 21.75 -26.34375 L 24.640625 -26.34375 C 24.640625 -27.53125 24.566406 -28.515625 24.421875 -29.296875 C 24.273438 -29.847656 24.003906 -30.46875 23.609375 -31.15625 C 23.304688 -31.550781 22.863281 -31.945312 22.28125 -32.34375 L 21.453125 -32.703125 C 21.304688 -32.660156 21.097656 -32.625 20.828125 -32.59375 C 20.554688 -32.570312 20.347656 -32.5625 20.203125 -32.5625 L 19.828125 -32.109375 C 19.285156 -31.328125 18.867188 -30.144531 18.578125 -28.5625 C 18.472656 -28.113281 18.375 -27.398438 18.28125 -26.421875 Z M 18.796875 -26.421875" transform="translate(124.75 100.5)"/></g></g></g><g><g><g><path d="M 13.84375 0.734375 C 16.601562 0.734375 17.984375 -0.691406 17.984375 -3.546875 C 17.984375 -4.585938 17.734375 -5.921875 17.234375 -7.546875 C 17.085938 -8.234375 16.867188 -8.898438 16.578125 -9.546875 C 16.578125 -9.597656 16.5625 -9.660156 16.53125 -9.734375 C 16.507812 -9.804688 16.5 -9.878906 16.5 -9.953125 C 16.5 -10.023438 16.484375 -10.125 16.453125 -10.25 C 16.429688 -10.375 16.421875 -10.484375 16.421875 -10.578125 C 16.378906 -11.117188 16.207031 -12.648438 15.90625 -15.171875 C 15.707031 -16.796875 15.5625 -18.175781 15.46875 -19.3125 C 15.320312 -23.90625 15.25 -28.25 15.25 -32.34375 C 15.25 -35.539062 15.296875 -38.375 15.390625 -40.84375 L 15.546875 -44.546875 C 16.128906 -45.335938 16.421875 -46.226562 16.421875 -47.21875 C 16.421875 -48.445312 15.976562 -49.515625 15.09375 -50.421875 C 14.207031 -51.335938 13.144531 -51.796875 11.90625 -51.796875 L 8.28125 -51.796875 C 7.988281 -51.796875 7.65625 -51.796875 7.28125 -51.796875 C 6.914062 -51.796875 6.644531 -51.796875 6.46875 -51.796875 C 6.300781 -51.796875 6.09375 -51.796875 5.84375 -51.796875 C 5.59375 -51.796875 5.421875 -51.757812 5.328125 -51.6875 C 5.234375 -51.613281 5.109375 -51.539062 4.953125 -51.46875 C 4.804688 -51.394531 4.695312 -51.269531 4.625 -51.09375 C 4.550781 -50.925781 4.476562 -50.726562 4.40625 -50.5 C 4.332031 -50.28125 4.269531 -50 4.21875 -49.65625 C 4.070312 -48.320312 4 -47.332031 4 -46.6875 C 4 -46.195312 4.019531 -45.878906 4.0625 -45.734375 C 4.019531 -45.628906 4 -45.53125 4 -45.4375 C 3.945312 -45.289062 3.921875 -44.75 3.921875 -43.8125 L 3.78125 -35.078125 C 3.78125 -34.628906 3.765625 -33.765625 3.734375 -32.484375 C 3.710938 -31.203125 3.703125 -30.164062 3.703125 -29.375 C 3.703125 -20.195312 3.898438 -14.179688 4.296875 -11.328125 C 4.296875 -7.972656 5.171875 -5.125 6.921875 -2.78125 C 8.671875 -0.4375 10.976562 0.734375 13.84375 0.734375 Z M 13.84375 0.734375" transform="translate(164.336 100.5)"/></g></g></g><g><g><g><path d="M 38.328125 -25.671875 C 39.117188 -24.242188 39.515625 -22.222656 39.515625 -19.609375 L 39.515625 -4 C 39.515625 -3.15625 39.242188 -2.316406 38.703125 -1.484375 C 38.453125 -0.546875 37.921875 0.238281 37.109375 0.875 C 36.296875 1.519531 35.375 1.84375 34.34375 1.84375 C 30.9375 1.84375 28.566406 1.625 27.234375 1.1875 C 26.546875 1.726562 25.734375 2 24.796875 2 C 24.296875 2 23.304688 1.773438 21.828125 1.328125 C 19.460938 0.734375 17.640625 -0.078125 16.359375 -1.109375 C 12.648438 -3.972656 9.96875 -6.265625 8.3125 -7.984375 C 6.664062 -9.710938 5.484375 -11.550781 4.765625 -13.5 C 4.054688 -15.445312 3.703125 -17.925781 3.703125 -20.9375 C 3.703125 -25.476562 4.625 -30.472656 6.46875 -35.921875 C 8.320312 -41.378906 10.875 -46.128906 14.125 -50.171875 C 17.382812 -54.210938 20.71875 -56.234375 24.125 -56.234375 C 25.507812 -56.234375 26.691406 -55.617188 27.671875 -54.390625 C 28.210938 -54.390625 28.660156 -54.363281 29.015625 -54.3125 L 29.671875 -54.234375 C 30.804688 -54.085938 31.78125 -53.570312 32.59375 -52.6875 C 33.40625 -51.800781 33.8125 -50.789062 33.8125 -49.65625 C 33.8125 -48.414062 33.351562 -47.363281 32.4375 -46.5 C 31.53125 -45.644531 30.460938 -45.21875 29.234375 -45.21875 C 27.753906 -45.21875 26.835938 -45.046875 26.484375 -44.703125 C 24.222656 -43.066406 22.210938 -39.867188 20.453125 -35.109375 C 18.703125 -30.347656 17.828125 -26.144531 17.828125 -22.5 C 17.828125 -18.25 18.765625 -15 20.640625 -12.75 C 22.515625 -10.507812 25.523438 -8.773438 29.671875 -7.546875 L 30.34375 -18.359375 C 27.925781 -17.222656 26.421875 -16.65625 25.828125 -16.65625 C 24.890625 -16.65625 24.195312 -17.296875 23.75 -18.578125 C 21.632812 -19.316406 20.578125 -20.742188 20.578125 -22.859375 C 20.578125 -26.710938 24.101562 -28.640625 31.15625 -28.640625 C 33.226562 -28.640625 34.78125 -28.441406 35.8125 -28.046875 C 36.851562 -27.648438 37.691406 -26.859375 38.328125 -25.671875 Z M 38.328125 -25.671875" transform="translate(186.016 100.5)"/></g></g></g><g><g><g><path d="M 34.5625 -37.375 C 34.757812 -36.832031 34.859375 -36.238281 34.859375 -35.59375 C 34.859375 -33.425781 33.820312 -31.972656 31.75 -31.234375 C 27.15625 -29.703125 22.125 -25.285156 16.65625 -17.984375 C 16.300781 -12.847656 15.4375 -7.691406 14.0625 -2.515625 C 13.8125 -1.484375 13.253906 -0.644531 12.390625 0 C 11.523438 0.644531 10.625 0.96875 9.6875 0.96875 C 8.550781 0.96875 7.550781 0.585938 6.6875 -0.171875 C 5.832031 -0.941406 5.304688 -1.894531 5.109375 -3.03125 C 4.222656 -4.269531 3.78125 -6.21875 3.78125 -8.875 C 3.78125 -10.457031 3.828125 -13.242188 3.921875 -17.234375 C 4.015625 -21.234375 4.0625 -23.304688 4.0625 -23.453125 L 3.78125 -35.515625 C 3.675781 -37.347656 3.976562 -38.84375 4.6875 -40 C 5.40625 -41.15625 6.457031 -41.734375 7.84375 -41.734375 C 9.175781 -41.734375 10.066406 -41.707031 10.515625 -41.65625 C 11.890625 -41.613281 13.070312 -41.320312 14.0625 -40.78125 C 15.789062 -39.84375 16.65625 -37.203125 16.65625 -32.859375 C 19.363281 -37.003906 22.296875 -39.59375 25.453125 -40.625 C 26.640625 -41.019531 27.726562 -41.21875 28.71875 -41.21875 C 30.195312 -41.21875 31.476562 -40.882812 32.5625 -40.21875 C 33.644531 -39.550781 34.3125 -38.601562 34.5625 -37.375 Z M 34.5625 -37.375" transform="translate(229.227 100.5)"/></g></g></g><g><g><g><path d="M 5.921875 -25.15625 C 4.441406 -26 3.703125 -27.304688 3.703125 -29.078125 C 3.703125 -30.410156 4.226562 -31.65625 5.28125 -32.8125 C 6.34375 -33.976562 7.710938 -34.757812 9.390625 -35.15625 C 10.085938 -35.9375 10.851562 -36.425781 11.6875 -36.625 C 12.082031 -36.726562 12.585938 -36.863281 13.203125 -37.03125 C 13.828125 -37.207031 14.234375 -37.316406 14.421875 -37.359375 C 14.617188 -37.410156 14.914062 -37.484375 15.3125 -37.578125 C 15.707031 -37.679688 15.988281 -37.734375 16.15625 -37.734375 C 16.332031 -37.734375 16.617188 -37.757812 17.015625 -37.8125 C 17.410156 -37.863281 17.789062 -37.890625 18.15625 -37.890625 C 18.53125 -37.890625 19.015625 -37.890625 19.609375 -37.890625 C 23.648438 -37.890625 26.484375 -36.078125 28.109375 -32.453125 C 29.742188 -28.828125 30.632812 -23.707031 30.78125 -17.09375 L 30.78125 -4.65625 C 30.78125 -3.425781 30.335938 -2.363281 29.453125 -1.46875 C 28.566406 -0.582031 27.503906 -0.140625 26.265625 -0.140625 C 24.585938 -0.140625 23.304688 -0.859375 22.421875 -2.296875 C 19.898438 -0.765625 17.382812 0 14.875 0 C 11.96875 0 9.585938 -0.640625 7.734375 -1.921875 C 5.878906 -3.203125 4.953125 -5.078125 4.953125 -7.546875 C 4.953125 -11.691406 6.367188 -15.6875 9.203125 -19.53125 C 12.046875 -23.382812 15.21875 -25.410156 18.71875 -25.609375 C 18.425781 -26.148438 18.15625 -26.566406 17.90625 -26.859375 C 15.144531 -26.859375 13.144531 -26.710938 11.90625 -26.421875 C 10.976562 -25.179688 9.75 -24.5625 8.21875 -24.5625 C 7.320312 -24.5625 6.554688 -24.757812 5.921875 -25.15625 Z M 19.234375 -16.5 L 18.875 -16.359375 C 18.476562 -16.054688 18.03125 -15.660156 17.53125 -15.171875 C 17.1875 -14.773438 16.523438 -13.9375 15.546875 -12.65625 C 15.046875 -11.8125 14.695312 -11.171875 14.5 -10.734375 C 14.007812 -9.492188 13.765625 -8.554688 13.765625 -7.921875 C 13.710938 -7.816406 13.6875 -7.691406 13.6875 -7.546875 C 13.789062 -7.492188 13.988281 -7.46875 14.28125 -7.46875 C 14.820312 -7.46875 15.34375 -7.546875 15.84375 -7.703125 C 16.476562 -7.941406 16.921875 -8.1875 17.171875 -8.4375 L 19.171875 -9.46875 L 20.34375 -10.21875 L 20.203125 -16.5 Z M 19.234375 -16.5" transform="translate(264.818 100.5)"/></g></g></g><g><g><g><path d="M 51.71875 -9.546875 C 51.71875 -8.859375 51.84375 -8.019531 52.09375 -7.03125 C 52.4375 -5.988281 52.609375 -5.148438 52.609375 -4.515625 C 52.609375 -3.328125 52.1875 -2.273438 51.34375 -1.359375 C 50.507812 -0.453125 49.425781 0 48.09375 0 C 44.59375 0 42.84375 -3.109375 42.84375 -9.328125 C 42.84375 -10.953125 42.988281 -12.765625 43.28125 -14.765625 C 43.582031 -16.765625 43.734375 -18.15625 43.734375 -18.9375 C 43.734375 -22.488281 43.535156 -24.757812 43.140625 -25.75 C 42.742188 -26.59375 42.398438 -27.132812 42.109375 -27.375 C 42.054688 -27.425781 41.804688 -27.453125 41.359375 -27.453125 C 40.472656 -27.359375 39.695312 -26.976562 39.03125 -26.3125 C 38.363281 -25.644531 37.820312 -24.742188 37.40625 -23.609375 C 36.988281 -22.472656 36.644531 -21.347656 36.375 -20.234375 C 36.101562 -19.128906 35.90625 -17.757812 35.78125 -16.125 C 35.65625 -14.5 35.554688 -13.164062 35.484375 -12.125 C 35.410156 -11.09375 35.359375 -9.8125 35.328125 -8.28125 C 35.304688 -6.757812 35.296875 -5.800781 35.296875 -5.40625 C 35.296875 -1.894531 33.25 0.175781 29.15625 0.8125 C 27.96875 1.007812 27.050781 0.65625 26.40625 -0.25 C 25.769531 -1.164062 25.453125 -2.390625 25.453125 -3.921875 L 25.453125 -20.125 C 25.453125 -22.445312 24.96875 -24.3125 24 -25.71875 C 23.039062 -27.125 21.800781 -27.828125 20.28125 -27.828125 C 19.632812 -27.828125 18.867188 -27.628906 17.984375 -27.234375 C 17.441406 -15.691406 17 -8.8125 16.65625 -6.59375 C 16.601562 -6.238281 16.578125 -5.445312 16.578125 -4.21875 L 16.578125 -1.40625 C 16.578125 -0.175781 16.117188 0.878906 15.203125 1.765625 C 14.296875 2.660156 13.222656 3.109375 11.984375 3.109375 C 10.953125 3.109375 10.023438 2.785156 9.203125 2.140625 C 8.390625 1.503906 7.863281 0.691406 7.625 -0.296875 C 5.007812 -0.742188 3.703125 -2.445312 3.703125 -5.40625 C 3.703125 -5.5 3.773438 -6.507812 3.921875 -8.4375 L 4.953125 -28.046875 C 5.347656 -33.472656 5.644531 -36.628906 5.84375 -37.515625 C 6.09375 -38.648438 6.648438 -39.570312 7.515625 -40.28125 C 8.378906 -41 9.351562 -41.359375 10.4375 -41.359375 C 11.070312 -41.359375 11.6875 -41.210938 12.28125 -40.921875 C 12.726562 -41.066406 13.171875 -41.140625 13.609375 -41.140625 C 16.617188 -41.140625 18.148438 -39.535156 18.203125 -36.328125 C 19.929688 -37.265625 21.832031 -37.734375 23.90625 -37.734375 C 25.78125 -37.734375 27.382812 -37.363281 28.71875 -36.625 C 30.738281 -35.445312 32.144531 -34.066406 32.9375 -32.484375 C 34.65625 -34.804688 36.875 -36.164062 39.59375 -36.5625 C 39.789062 -36.601562 40.578125 -36.625 41.953125 -36.625 C 45.753906 -36.625 48.53125 -34.945312 50.28125 -31.59375 C 52.03125 -28.238281 52.90625 -23.875 52.90625 -18.5 C 52.90625 -17.113281 52.707031 -15.484375 52.3125 -13.609375 C 51.914062 -11.734375 51.71875 -10.378906 51.71875 -9.546875 Z M 51.71875 -9.546875" transform="translate(299.298 100.5)"/></g></g></g></svg>